# xmcd
#
# Track frame offsets:
#	150
#	21735
#	41647
#	61923
#	88011
#	111458
#	130204
#	153621
#	180627
#	204161
#
# Disc length: 2953 seconds
#
# Revision: 2
# Processed by: cddbd v1.5.1PL0 Copyright (c) Steve Scherf et al.
# Submitted via: EasyCDDAExtractor 6.5.0.1
#
DISCID=8c0b870a
DTITLE=TOÑO ROSARIO - RESISTIRE
DYEAR=2004
DGENRE=Latin
TTITLE0=EL RELOJ
TTITLE1=PORQUE YO QUIERO
TTITLE2=VAMOS A REIR UN POCO
TTITLE3=AY HOMBRE
TTITLE4=SOMBRAS NADA MAS
TTITLE5=TE AMARE
TTITLE6=RESISTIRE
TTITLE7=MI TRISTEZA ES MIA Y NADA MAS
TTITLE8=ERES (LA FLOR)
TTITLE9=EN VANIDADES
EXTD=
EXTT0=
EXTT1=
EXTT2=
EXTT3=
EXTT4=
EXTT5=
EXTT6=
EXTT7=
EXTT8=
EXTT9=
PLAYORDER=
